# xmcd
#
# Track frame offsets: 
#        150
#        2359
#        15980
#        37050
#        55007
#        77977
#        102170
#        125175
#        147920
#        175230
#        177945
#        193605
#        215702
#        219502
#        250462
#
# Disc length: 3432 seconds
#
# Revision: 11
# Processed by: cddbd v1.5.2PL0 Copyright (c) Steve Scherf et al.
# Submitted via: ExactAudioCopy v1.0b2
#
DISCID=d40d660f
DTITLE=Till Brönner - Blue Eyed Soul
DYEAR=2002
DGENRE=Jazz
TTITLE0=Intro
TTITLE1=Track One
TTITLE2=Diavolo
TTITLE3=Blue Eyed Soul
TTITLE4=No Fusion Generation
TTITLE5=42Nd and 6Th
TTITLE6=Tub Of Love
TTITLE7=Just The Way You Are
TTITLE8=Love Somebody
TTITLE9=Trash (Interlude)
TTITLE10=Jazz Musician
TTITLE11=Oscar Said (Feat. David Friedmann)
TTITLE12=Reverand Henry (Interlude)
TTITLE13=Dim The Lights (Feat. Mark Murphy)
TTITLE14=Banizm (Outro)
EXTD=YEAR: 2002
EXTT0=
EXTT1=
EXTT2=
EXTT3=
EXTT4=
EXTT5=
EXTT6=
EXTT7=
EXTT8=
EXTT9=
EXTT10=
EXTT11=
EXTT12=
EXTT13=
EXTT14=
PLAYORDER=
